<svg width="144" height="20" viewBox="0 0 144 20" fill="none" xmlns="http://www.w3.org/2000/svg">
<path d="M8.242 0.571999H11.57L13.676 6.682L15.808 0.571999H19.11L15.938 8.97L18.278 14.846L23.504 0.519999H27.404L20.02 18.98H16.926L13.676 11.232L10.452 18.98H7.358L0 0.519999H3.848L9.1 14.846L11.388 8.97L8.242 0.571999ZM34.227 19.24C33.135 19.24 32.147 19.058 31.263 18.694C30.379 18.3127 29.625 17.8013 29.001 17.16C28.377 16.5013 27.8916 15.756 27.545 14.924C27.2156 14.0747 27.051 13.182 27.051 12.246C27.051 10.946 27.337 9.75867 27.909 8.684C28.4983 7.60933 29.3303 6.75133 30.405 6.11C31.497 5.45133 32.7796 5.122 34.253 5.122C35.7436 5.122 37.0176 5.45133 38.075 6.11C39.1323 6.75133 39.9383 7.60933 40.493 8.684C41.065 9.74133 41.351 10.8853 41.351 12.116C41.351 12.324 41.3423 12.5407 41.325 12.766C41.3076 12.974 41.2903 13.1473 41.273 13.286H30.743C30.8123 13.9793 31.0116 14.586 31.341 15.106C31.6876 15.626 32.121 16.0247 32.641 16.302C33.1783 16.562 33.7503 16.692 34.357 16.692C35.0503 16.692 35.7003 16.5273 36.307 16.198C36.931 15.8513 37.3556 15.4007 37.581 14.846L40.571 15.678C40.2416 16.3713 39.765 16.9867 39.141 17.524C38.5343 18.0613 37.815 18.486 36.983 18.798C36.151 19.0927 35.2323 19.24 34.227 19.24ZM30.665 11.076H37.789C37.7196 10.3827 37.5203 9.78467 37.191 9.282C36.879 8.762 36.463 8.36333 35.943 8.086C35.423 7.79133 34.8423 7.644 34.201 7.644C33.577 7.644 33.005 7.79133 32.485 8.086C31.9823 8.36333 31.5663 8.762 31.237 9.282C30.925 9.78467 30.7343 10.3827 30.665 11.076ZM52.0014 19.24C50.9614 19.24 50.0341 19.006 49.2194 18.538C48.4048 18.07 47.7634 17.4287 47.2954 16.614V18.98H44.2534V-9.53674e-07H47.7374V7.748C48.2228 6.93333 48.8554 6.292 49.6354 5.824C50.4328 5.356 51.3601 5.122 52.4174 5.122C53.3014 5.122 54.1074 5.31266 54.8354 5.694C55.5634 6.058 56.1874 6.56933 56.7074 7.228C57.2448 7.88667 57.6521 8.64067 57.9294 9.49C58.2241 10.3393 58.3714 11.2493 58.3714 12.22C58.3714 13.1907 58.2068 14.1007 57.8774 14.95C57.5654 15.7993 57.1234 16.5533 56.5514 17.212C55.9794 17.8533 55.3034 18.356 54.5234 18.72C53.7608 19.0667 52.9201 19.24 52.0014 19.24ZM51.0394 16.276C51.5941 16.276 52.0968 16.172 52.5474 15.964C53.0154 15.7387 53.4141 15.444 53.7434 15.08C54.0901 14.716 54.3501 14.2913 54.5234 13.806C54.7141 13.3033 54.8094 12.7833 54.8094 12.246C54.8094 11.5007 54.6534 10.816 54.3414 10.192C54.0468 9.55067 53.6308 9.03933 53.0934 8.658C52.5734 8.27667 51.9581 8.086 51.2474 8.086C50.7448 8.086 50.2594 8.20733 49.7914 8.45C49.3408 8.67533 48.9334 8.98733 48.5694 9.386C48.2228 9.78467 47.9454 10.2353 47.7374 10.738V13.988C47.8414 14.3347 48.0061 14.6467 48.2314 14.924C48.4741 15.2013 48.7514 15.444 49.0634 15.652C49.3754 15.8427 49.6961 15.9987 50.0254 16.12C50.3721 16.224 50.7101 16.276 51.0394 16.276Z" fill="#2196F3"/>
<path d="M72.6448 5.356C72.5235 5.23467 72.2981 5.07 71.9688 4.862C71.6568 4.654 71.2668 4.45467 70.7988 4.264C70.3481 4.07333 69.8541 3.90867 69.3168 3.77C68.7795 3.614 68.2335 3.536 67.6788 3.536C66.7081 3.536 65.9715 3.718 65.4688 4.082C64.9835 4.446 64.7408 4.95733 64.7408 5.616C64.7408 6.11867 64.8968 6.51733 65.2088 6.812C65.5208 7.10667 65.9888 7.358 66.6128 7.566C67.2368 7.774 68.0168 7.99933 68.9528 8.242C70.1661 8.53667 71.2148 8.90067 72.0988 9.334C73.0001 9.75 73.6848 10.3047 74.1528 10.998C74.6381 11.674 74.8808 12.5753 74.8808 13.702C74.8808 14.69 74.6988 15.5393 74.3348 16.25C73.9708 16.9433 73.4681 17.5067 72.8268 17.94C72.1855 18.3733 71.4575 18.694 70.6428 18.902C69.8281 19.0927 68.9615 19.188 68.0428 19.188C67.1241 19.188 66.2055 19.0927 65.2868 18.902C64.3681 18.7113 63.4841 18.4427 62.6348 18.096C61.7855 17.732 61.0055 17.2987 60.2948 16.796L61.8808 13.702C62.0368 13.858 62.3141 14.066 62.7128 14.326C63.1115 14.5687 63.5968 14.82 64.1688 15.08C64.7408 15.3227 65.3648 15.5307 66.0408 15.704C66.7168 15.8773 67.4015 15.964 68.0948 15.964C69.0655 15.964 69.8021 15.7993 70.3048 15.47C70.8075 15.1407 71.0588 14.6727 71.0588 14.066C71.0588 13.5113 70.8595 13.078 70.4608 12.766C70.0621 12.454 69.5075 12.1853 68.7968 11.96C68.0861 11.7173 67.2455 11.4573 66.2748 11.18C65.1135 10.8507 64.1428 10.4867 63.3628 10.088C62.5828 9.672 62.0021 9.152 61.6208 8.528C61.2395 7.904 61.0488 7.124 61.0488 6.188C61.0488 4.92267 61.3435 3.86533 61.9328 3.016C62.5395 2.14933 63.3541 1.49933 64.3768 1.066C65.3995 0.615332 66.5348 0.389999 67.7828 0.389999C68.6495 0.389999 69.4641 0.485332 70.2268 0.675998C71.0068 0.866665 71.7348 1.118 72.4108 1.43C73.0868 1.742 73.6935 2.08 74.2308 2.444L72.6448 5.356ZM85.8934 18.278C85.5988 18.3993 85.2434 18.538 84.8274 18.694C84.4114 18.85 83.9608 18.9713 83.4754 19.058C83.0074 19.162 82.5308 19.214 82.0454 19.214C81.4041 19.214 80.8148 19.1013 80.2774 18.876C79.7401 18.6507 79.3068 18.2953 78.9774 17.81C78.6654 17.3073 78.5094 16.6573 78.5094 15.86V8.034H76.7154V5.356H78.5094V0.935999H81.9934V5.356H84.8534V8.034H81.9934V14.69C82.0108 15.158 82.1408 15.496 82.3834 15.704C82.6261 15.912 82.9294 16.016 83.2934 16.016C83.6574 16.016 84.0128 15.9553 84.3594 15.834C84.7061 15.7127 84.9834 15.6087 85.1914 15.522L85.8934 18.278ZM88.358 13.884V5.356H91.842V13.13C91.842 14.17 92.0326 14.9587 92.414 15.496C92.7953 16.016 93.3586 16.276 94.104 16.276C94.5546 16.276 94.9966 16.1893 95.43 16.016C95.8806 15.8253 96.288 15.548 96.652 15.184C97.0333 14.82 97.354 14.3607 97.614 13.806V5.356H101.098V15.08C101.098 15.444 101.159 15.704 101.28 15.86C101.419 16.016 101.635 16.1113 101.93 16.146V18.98C101.583 19.032 101.289 19.0667 101.046 19.084C100.821 19.1187 100.613 19.136 100.422 19.136C99.798 19.136 99.2866 18.9973 98.888 18.72C98.5066 18.4253 98.2813 18.0267 98.212 17.524L98.134 16.432C97.5273 17.3507 96.7473 18.0527 95.794 18.538C94.8406 19.006 93.792 19.24 92.648 19.24C91.244 19.24 90.178 18.7893 89.45 17.888C88.722 16.9693 88.358 15.6347 88.358 13.884ZM104.508 12.168C104.508 10.8507 104.768 9.66333 105.288 8.606C105.808 7.53133 106.528 6.682 107.446 6.058C108.365 5.434 109.414 5.122 110.592 5.122C111.598 5.122 112.499 5.37333 113.296 5.876C114.111 6.36133 114.744 6.98533 115.194 7.748V-9.53674e-07H118.678V15.08C118.678 15.444 118.739 15.704 118.86 15.86C118.982 16.016 119.19 16.1113 119.484 16.146V18.98C118.878 19.1013 118.384 19.162 118.002 19.162C117.378 19.162 116.858 19.006 116.442 18.694C116.044 18.382 115.818 17.9747 115.766 17.472L115.714 16.614C115.212 17.4633 114.527 18.1133 113.66 18.564C112.811 19.0147 111.918 19.24 110.982 19.24C110.046 19.24 109.18 19.058 108.382 18.694C107.602 18.33 106.918 17.8273 106.328 17.186C105.756 16.5447 105.306 15.7993 104.976 14.95C104.664 14.0833 104.508 13.156 104.508 12.168ZM115.194 13.988V10.738C115.021 10.2353 114.744 9.78467 114.362 9.386C113.981 8.98733 113.556 8.67533 113.088 8.45C112.62 8.20733 112.152 8.086 111.684 8.086C111.147 8.086 110.662 8.19867 110.228 8.424C109.795 8.64933 109.414 8.95267 109.084 9.334C108.772 9.71533 108.53 10.1573 108.356 10.66C108.2 11.1627 108.122 11.6913 108.122 12.246C108.122 12.8007 108.209 13.3293 108.382 13.832C108.573 14.3173 108.842 14.742 109.188 15.106C109.535 15.47 109.934 15.756 110.384 15.964C110.852 16.172 111.355 16.276 111.892 16.276C112.222 16.276 112.551 16.224 112.88 16.12C113.227 15.9987 113.548 15.8427 113.842 15.652C114.154 15.444 114.423 15.2013 114.648 14.924C114.891 14.6293 115.073 14.3173 115.194 13.988ZM122.878 18.98V5.356H126.362V18.98H122.878ZM122.878 3.458V-9.53674e-07H126.362V3.458H122.878ZM136.577 19.24C135.468 19.24 134.471 19.058 133.587 18.694C132.703 18.3127 131.949 17.7927 131.325 17.134C130.718 16.4753 130.25 15.7213 129.921 14.872C129.592 14.0227 129.427 13.13 129.427 12.194C129.427 11.2407 129.592 10.3393 129.921 9.49C130.25 8.64067 130.718 7.88667 131.325 7.228C131.949 6.56933 132.703 6.058 133.587 5.694C134.471 5.31266 135.468 5.122 136.577 5.122C137.686 5.122 138.674 5.31266 139.541 5.694C140.425 6.058 141.179 6.56933 141.803 7.228C142.427 7.88667 142.895 8.64067 143.207 9.49C143.536 10.3393 143.701 11.2407 143.701 12.194C143.701 13.13 143.536 14.0227 143.207 14.872C142.895 15.7213 142.427 16.4753 141.803 17.134C141.196 17.7927 140.451 18.3127 139.567 18.694C138.683 19.058 137.686 19.24 136.577 19.24ZM133.015 12.194C133.015 12.9913 133.171 13.702 133.483 14.326C133.795 14.9327 134.22 15.4093 134.757 15.756C135.294 16.1027 135.901 16.276 136.577 16.276C137.236 16.276 137.834 16.1027 138.371 15.756C138.908 15.392 139.333 14.9067 139.645 14.3C139.974 13.676 140.139 12.9653 140.139 12.168C140.139 11.388 139.974 10.686 139.645 10.062C139.333 9.438 138.908 8.95267 138.371 8.606C137.834 8.25933 137.236 8.086 136.577 8.086C135.901 8.086 135.294 8.268 134.757 8.632C134.22 8.97867 133.795 9.464 133.483 10.088C133.171 10.6947 133.015 11.3967 133.015 12.194Z" fill="black"/>
</svg>
