<svg width="161" height="20" viewBox="0 0 161 20" fill="none" xmlns="http://www.w3.org/2000/svg">
<path d="M8.242 0.57198H11.57L13.676 6.68198L15.808 0.57198H19.11L15.938 8.96998L18.278 14.846L23.504 0.519979H27.404L20.02 18.98H16.926L13.676 11.232L10.452 18.98H7.358L0 0.519979H3.848L9.1 14.846L11.388 8.96998L8.242 0.57198ZM34.227 19.24C33.135 19.24 32.147 19.058 31.263 18.694C30.379 18.3126 29.625 17.8013 29.001 17.16C28.377 16.5013 27.8916 15.756 27.545 14.924C27.2156 14.0746 27.051 13.182 27.051 12.246C27.051 10.946 27.337 9.75865 27.909 8.68398C28.4983 7.60931 29.3303 6.75131 30.405 6.10998C31.497 5.45131 32.7796 5.12198 34.253 5.12198C35.7436 5.12198 37.0176 5.45131 38.075 6.10998C39.1323 6.75131 39.9383 7.60931 40.493 8.68398C41.065 9.74131 41.351 10.8853 41.351 12.116C41.351 12.324 41.3423 12.5406 41.325 12.766C41.3076 12.974 41.2903 13.1473 41.273 13.286H30.743C30.8123 13.9793 31.0116 14.586 31.341 15.106C31.6876 15.626 32.121 16.0246 32.641 16.302C33.1783 16.562 33.7503 16.692 34.357 16.692C35.0503 16.692 35.7003 16.5273 36.307 16.198C36.931 15.8513 37.3556 15.4006 37.581 14.846L40.571 15.678C40.2416 16.3713 39.765 16.9866 39.141 17.524C38.5343 18.0613 37.815 18.486 36.983 18.798C36.151 19.0926 35.2323 19.24 34.227 19.24ZM30.665 11.076H37.789C37.7196 10.3826 37.5203 9.78465 37.191 9.28198C36.879 8.76198 36.463 8.36331 35.943 8.08598C35.423 7.79131 34.8423 7.64398 34.201 7.64398C33.577 7.64398 33.005 7.79131 32.485 8.08598C31.9823 8.36331 31.5663 8.76198 31.237 9.28198C30.925 9.78465 30.7343 10.3826 30.665 11.076ZM52.0014 19.24C50.9614 19.24 50.0341 19.006 49.2194 18.538C48.4048 18.07 47.7634 17.4286 47.2954 16.614V18.98H44.2534V-2.00272e-05H47.7374V7.74798C48.2228 6.93331 48.8554 6.29198 49.6354 5.82398C50.4328 5.35598 51.3601 5.12198 52.4174 5.12198C53.3014 5.12198 54.1074 5.31265 54.8354 5.69398C55.5634 6.05798 56.1874 6.56931 56.7074 7.22798C57.2448 7.88665 57.6521 8.64065 57.9294 9.48998C58.2241 10.3393 58.3714 11.2493 58.3714 12.22C58.3714 13.1906 58.2068 14.1006 57.8774 14.95C57.5654 15.7993 57.1234 16.5533 56.5514 17.212C55.9794 17.8533 55.3034 18.356 54.5234 18.72C53.7608 19.0666 52.9201 19.24 52.0014 19.24ZM51.0394 16.276C51.5941 16.276 52.0968 16.172 52.5474 15.964C53.0154 15.7386 53.4141 15.444 53.7434 15.08C54.0901 14.716 54.3501 14.2913 54.5234 13.806C54.7141 13.3033 54.8094 12.7833 54.8094 12.246C54.8094 11.5006 54.6534 10.816 54.3414 10.192C54.0468 9.55065 53.6308 9.03931 53.0934 8.65798C52.5734 8.27665 51.9581 8.08598 51.2474 8.08598C50.7448 8.08598 50.2594 8.20731 49.7914 8.44998C49.3408 8.67531 48.9334 8.98731 48.5694 9.38598C48.2228 9.78465 47.9454 10.2353 47.7374 10.738V13.988C47.8414 14.3346 48.0061 14.6466 48.2314 14.924C48.4741 15.2013 48.7514 15.444 49.0634 15.652C49.3754 15.8426 49.6961 15.9986 50.0254 16.12C50.3721 16.224 50.7101 16.276 51.0394 16.276Z" fill="#2196F3"/>
<path d="M72.6448 5.35598C72.5235 5.23465 72.2981 5.06998 71.9688 4.86198C71.6568 4.65398 71.2668 4.45465 70.7988 4.26398C70.3481 4.07331 69.8541 3.90865 69.3168 3.76998C68.7795 3.61398 68.2335 3.53598 67.6788 3.53598C66.7081 3.53598 65.9715 3.71798 65.4688 4.08198C64.9835 4.44598 64.7408 4.95731 64.7408 5.61598C64.7408 6.11865 64.8968 6.51731 65.2088 6.81198C65.5208 7.10665 65.9888 7.35798 66.6128 7.56598C67.2368 7.77398 68.0168 7.99931 68.9528 8.24198C70.1661 8.53665 71.2148 8.90065 72.0988 9.33398C73.0001 9.74998 73.6848 10.3046 74.1528 10.998C74.6381 11.674 74.8808 12.5753 74.8808 13.702C74.8808 14.69 74.6988 15.5393 74.3348 16.25C73.9708 16.9433 73.4681 17.5066 72.8268 17.94C72.1855 18.3733 71.4575 18.694 70.6428 18.902C69.8281 19.0926 68.9615 19.188 68.0428 19.188C67.1241 19.188 66.2055 19.0926 65.2868 18.902C64.3681 18.7113 63.4841 18.4426 62.6348 18.096C61.7855 17.732 61.0055 17.2986 60.2948 16.796L61.8808 13.702C62.0368 13.858 62.3141 14.066 62.7128 14.326C63.1115 14.5686 63.5968 14.82 64.1688 15.08C64.7408 15.3226 65.3648 15.5306 66.0408 15.704C66.7168 15.8773 67.4015 15.964 68.0948 15.964C69.0655 15.964 69.8021 15.7993 70.3048 15.47C70.8075 15.1406 71.0588 14.6726 71.0588 14.066C71.0588 13.5113 70.8595 13.078 70.4608 12.766C70.0621 12.454 69.5075 12.1853 68.7968 11.96C68.0861 11.7173 67.2455 11.4573 66.2748 11.18C65.1135 10.8506 64.1428 10.4866 63.3628 10.088C62.5828 9.67198 62.0021 9.15198 61.6208 8.52798C61.2395 7.90398 61.0488 7.12398 61.0488 6.18798C61.0488 4.92265 61.3435 3.86531 61.9328 3.01598C62.5395 2.14931 63.3541 1.49931 64.3768 1.06598C65.3995 0.615313 66.5348 0.38998 67.7828 0.38998C68.6495 0.38998 69.4641 0.485313 70.2268 0.675979C71.0068 0.866646 71.7348 1.11798 72.4108 1.42998C73.0868 1.74198 73.6935 2.07998 74.2308 2.44398L72.6448 5.35598ZM85.8934 18.278C85.5988 18.3993 85.2434 18.538 84.8274 18.694C84.4114 18.85 83.9608 18.9713 83.4754 19.058C83.0074 19.162 82.5308 19.214 82.0454 19.214C81.4041 19.214 80.8148 19.1013 80.2774 18.876C79.7401 18.6506 79.3068 18.2953 78.9774 17.81C78.6654 17.3073 78.5094 16.6573 78.5094 15.86V8.03398H76.7154V5.35598H78.5094V0.93598H81.9934V5.35598H84.8534V8.03398H81.9934V14.69C82.0108 15.158 82.1408 15.496 82.3834 15.704C82.6261 15.912 82.9294 16.016 83.2934 16.016C83.6574 16.016 84.0128 15.9553 84.3594 15.834C84.7061 15.7126 84.9834 15.6086 85.1914 15.522L85.8934 18.278ZM88.358 13.884V5.35598H91.842V13.13C91.842 14.17 92.0326 14.9586 92.414 15.496C92.7953 16.016 93.3586 16.276 94.104 16.276C94.5546 16.276 94.9966 16.1893 95.43 16.016C95.8806 15.8253 96.288 15.548 96.652 15.184C97.0333 14.82 97.354 14.3606 97.614 13.806V5.35598H101.098V15.08C101.098 15.444 101.159 15.704 101.28 15.86C101.419 16.016 101.635 16.1113 101.93 16.146V18.98C101.583 19.032 101.289 19.0666 101.046 19.084C100.821 19.1186 100.613 19.136 100.422 19.136C99.798 19.136 99.2866 18.9973 98.888 18.72C98.5066 18.4253 98.2813 18.0266 98.212 17.524L98.134 16.432C97.5273 17.3506 96.7473 18.0526 95.794 18.538C94.8406 19.006 93.792 19.24 92.648 19.24C91.244 19.24 90.178 18.7893 89.45 17.888C88.722 16.9693 88.358 15.6346 88.358 13.884ZM104.508 12.168C104.508 10.8506 104.768 9.66331 105.288 8.60598C105.808 7.53131 106.528 6.68198 107.446 6.05798C108.365 5.43398 109.414 5.12198 110.592 5.12198C111.598 5.12198 112.499 5.37331 113.296 5.87598C114.111 6.36131 114.744 6.98531 115.194 7.74798V-2.00272e-05H118.678V15.08C118.678 15.444 118.739 15.704 118.86 15.86C118.982 16.016 119.19 16.1113 119.484 16.146V18.98C118.878 19.1013 118.384 19.162 118.002 19.162C117.378 19.162 116.858 19.006 116.442 18.694C116.044 18.382 115.818 17.9746 115.766 17.472L115.714 16.614C115.212 17.4633 114.527 18.1133 113.66 18.564C112.811 19.0146 111.918 19.24 110.982 19.24C110.046 19.24 109.18 19.058 108.382 18.694C107.602 18.33 106.918 17.8273 106.328 17.186C105.756 16.5446 105.306 15.7993 104.976 14.95C104.664 14.0833 104.508 13.156 104.508 12.168ZM115.194 13.988V10.738C115.021 10.2353 114.744 9.78465 114.362 9.38598C113.981 8.98731 113.556 8.67531 113.088 8.44998C112.62 8.20731 112.152 8.08598 111.684 8.08598C111.147 8.08598 110.662 8.19865 110.228 8.42398C109.795 8.64931 109.414 8.95265 109.084 9.33398C108.772 9.71531 108.53 10.1573 108.356 10.66C108.2 11.1626 108.122 11.6913 108.122 12.246C108.122 12.8006 108.209 13.3293 108.382 13.832C108.573 14.3173 108.842 14.742 109.188 15.106C109.535 15.47 109.934 15.756 110.384 15.964C110.852 16.172 111.355 16.276 111.892 16.276C112.222 16.276 112.551 16.224 112.88 16.12C113.227 15.9986 113.548 15.8426 113.842 15.652C114.154 15.444 114.423 15.2013 114.648 14.924C114.891 14.6293 115.073 14.3173 115.194 13.988ZM135.54 18.98H132.056V11.336C132.056 10.2786 131.848 9.48998 131.432 8.96998C131.033 8.44998 130.479 8.18998 129.768 8.18998C129.352 8.18998 128.91 8.31131 128.442 8.55398C127.974 8.79665 127.549 9.13465 127.168 9.56798C126.804 9.98398 126.535 10.4693 126.362 11.024V18.98H122.878V-2.00272e-05H126.362V7.87798C126.865 7.01131 127.549 6.33531 128.416 5.84998C129.283 5.36465 130.227 5.12198 131.25 5.12198C132.134 5.12198 132.853 5.27798 133.408 5.58998C133.963 5.88465 134.396 6.29198 134.708 6.81198C135.02 7.31465 135.237 7.88665 135.358 8.52798C135.479 9.15198 135.54 9.80198 135.54 10.478V18.98ZM139.349 18.98V5.35598H142.833V18.98H139.349ZM139.349 3.45798V-2.00272e-05H142.833V3.45798H139.349ZM153.048 19.24C151.939 19.24 150.942 19.058 150.058 18.694C149.174 18.3126 148.42 17.7926 147.796 17.134C147.19 16.4753 146.722 15.7213 146.392 14.872C146.063 14.0226 145.898 13.13 145.898 12.194C145.898 11.2406 146.063 10.3393 146.392 9.48998C146.722 8.64065 147.19 7.88665 147.796 7.22798C148.42 6.56931 149.174 6.05798 150.058 5.69398C150.942 5.31265 151.939 5.12198 153.048 5.12198C154.158 5.12198 155.146 5.31265 156.012 5.69398C156.896 6.05798 157.65 6.56931 158.274 7.22798C158.898 7.88665 159.366 8.64065 159.678 9.48998C160.008 10.3393 160.172 11.2406 160.172 12.194C160.172 13.13 160.008 14.0226 159.678 14.872C159.366 15.7213 158.898 16.4753 158.274 17.134C157.668 17.7926 156.922 18.3126 156.038 18.694C155.154 19.058 154.158 19.24 153.048 19.24ZM149.486 12.194C149.486 12.9913 149.642 13.702 149.954 14.326C150.266 14.9326 150.691 15.4093 151.228 15.756C151.766 16.1026 152.372 16.276 153.048 16.276C153.707 16.276 154.305 16.1026 154.842 15.756C155.38 15.392 155.804 14.9066 156.116 14.3C156.446 13.676 156.61 12.9653 156.61 12.168C156.61 11.388 156.446 10.686 156.116 10.062C155.804 9.43798 155.38 8.95265 154.842 8.60598C154.305 8.25931 153.707 8.08598 153.048 8.08598C152.372 8.08598 151.766 8.26798 151.228 8.63198C150.691 8.97865 150.266 9.46398 149.954 10.088C149.642 10.6946 149.486 11.3966 149.486 12.194Z" fill="white"/>
</svg>
